<mxfile host="app.diagrams.net" agent="Mozilla/5.0 (Windows NT 10.0; Win64; x64) AppleWebKit/537.36 (KHTML, like Gecko) Chrome/135.0.0.0 Safari/537.36" version="26.2.9">
  <diagram id="C5RBs43oDa-KdzZeNtuy" name="Page-1">
    <mxGraphModel dx="870" dy="439" grid="1" gridSize="10" guides="1" tooltips="1" connect="1" arrows="1" fold="1" page="1" pageScale="1" pageWidth="827" pageHeight="1169" math="0" shadow="0">
      <root>
        <mxCell id="WIyWlLk6GJQsqaUBKTNV-0" />
        <mxCell id="WIyWlLk6GJQsqaUBKTNV-1" parent="WIyWlLk6GJQsqaUBKTNV-0" />
        <mxCell id="xwGNpUv8_wgzNb75v3oQ-0" value="选择推荐参数" style="rounded=1;whiteSpace=wrap;html=1;" vertex="1" parent="WIyWlLk6GJQsqaUBKTNV-1">
          <mxGeometry x="40" y="160" width="120" height="80" as="geometry" />
        </mxCell>
        <mxCell id="xwGNpUv8_wgzNb75v3oQ-3" value="" style="edgeStyle=orthogonalEdgeStyle;rounded=0;orthogonalLoop=1;jettySize=auto;html=1;exitX=1;exitY=0.5;exitDx=0;exitDy=0;" edge="1" parent="WIyWlLk6GJQsqaUBKTNV-1" source="xwGNpUv8_wgzNb75v3oQ-0" target="xwGNpUv8_wgzNb75v3oQ-2">
          <mxGeometry relative="1" as="geometry">
            <mxPoint x="240" y="200.16666666666674" as="targetPoint" />
            <mxPoint x="160" y="200" as="sourcePoint" />
          </mxGeometry>
        </mxCell>
        <mxCell id="xwGNpUv8_wgzNb75v3oQ-9" style="edgeStyle=orthogonalEdgeStyle;rounded=0;orthogonalLoop=1;jettySize=auto;html=1;" edge="1" parent="WIyWlLk6GJQsqaUBKTNV-1" source="xwGNpUv8_wgzNb75v3oQ-2" target="xwGNpUv8_wgzNb75v3oQ-5">
          <mxGeometry relative="1" as="geometry" />
        </mxCell>
        <mxCell id="xwGNpUv8_wgzNb75v3oQ-2" value="点击获取推荐" style="rounded=1;whiteSpace=wrap;html=1;" vertex="1" parent="WIyWlLk6GJQsqaUBKTNV-1">
          <mxGeometry x="200" y="160" width="120" height="80" as="geometry" />
        </mxCell>
        <mxCell id="xwGNpUv8_wgzNb75v3oQ-8" style="edgeStyle=orthogonalEdgeStyle;rounded=0;orthogonalLoop=1;jettySize=auto;html=1;entryX=1;entryY=0.5;entryDx=0;entryDy=0;" edge="1" parent="WIyWlLk6GJQsqaUBKTNV-1" source="xwGNpUv8_wgzNb75v3oQ-5" target="xwGNpUv8_wgzNb75v3oQ-6">
          <mxGeometry relative="1" as="geometry" />
        </mxCell>
        <mxCell id="xwGNpUv8_wgzNb75v3oQ-5" value="等待AI推理完成" style="rounded=1;whiteSpace=wrap;html=1;" vertex="1" parent="WIyWlLk6GJQsqaUBKTNV-1">
          <mxGeometry x="200" y="300" width="120" height="80" as="geometry" />
        </mxCell>
        <mxCell id="xwGNpUv8_wgzNb75v3oQ-6" value="获取推荐结果" style="rounded=1;whiteSpace=wrap;html=1;" vertex="1" parent="WIyWlLk6GJQsqaUBKTNV-1">
          <mxGeometry x="40" y="300" width="120" height="80" as="geometry" />
        </mxCell>
      </root>
    </mxGraphModel>
  </diagram>
</mxfile>
